<svg width="92" height="29" viewBox="0 0 92 29" fill="none" xmlns="http://www.w3.org/2000/svg">
<path fill-rule="evenodd" clip-rule="evenodd" d="M3.09818 0H28.5648C29.0801 0 29.5491 0.29766 29.7685 0.763988L31.6582 4.78075C32.0732 5.66303 31.4295 6.67731 30.4545 6.67731H21.9417C21.4518 6.67731 21.0015 6.94659 20.7697 7.37821L18.6474 11.3301C18.1715 12.2164 18.8135 13.2898 19.8194 13.2898H25.4139C26.5044 13.2898 27.1316 14.5296 26.4857 15.4081L17.2969 27.9044C16.4357 29.0756 14.5888 28.2142 14.9326 26.8017L16.5117 20.3155C16.7156 19.4779 16.0812 18.6705 15.2192 18.6705H9.07797C8.11001 18.6705 7.46612 17.6697 7.86737 16.7888L11.6162 8.55903C12.0174 7.67816 11.3736 6.67731 10.4056 6.67731H1.33175C0.371335 6.67731 -0.272596 5.69068 0.114028 4.81152L1.88045 0.794761C2.09284 0.3118 2.57058 0 3.09818 0ZM55.128 9.99972V7.53372H45.354V9.99972H48.702V20.1697H51.78V9.99972H55.128ZM56.6367 12.4117C56.2527 13.1917 56.0607 14.0977 56.0607 15.1297C56.0607 16.1617 56.2527 17.0737 56.6367 17.8657C57.0327 18.6457 57.5667 19.2517 58.2387 19.6837C58.9107 20.1037 59.6547 20.3137 60.4707 20.3137C61.1787 20.3137 61.7967 20.1697 62.3247 19.8817C62.8647 19.5937 63.2847 19.2157 63.5847 18.7477V20.1697H66.6627V10.1257H63.5847V11.5477C63.2967 11.0797 62.8827 10.7017 62.3427 10.4137C61.8147 10.1257 61.1967 9.98172 60.4887 9.98172C59.6607 9.98172 58.9107 10.1917 58.2387 10.6117C57.5667 11.0317 57.0327 11.6317 56.6367 12.4117ZM62.9367 13.3297C63.3687 13.7737 63.5847 14.3797 63.5847 15.1477C63.5847 15.9157 63.3687 16.5217 62.9367 16.9657C62.5167 17.4097 62.0007 17.6317 61.3887 17.6317C60.7767 17.6317 60.2547 17.4097 59.8227 16.9657C59.4027 16.5097 59.1927 15.8977 59.1927 15.1297C59.1927 14.3617 59.4027 13.7617 59.8227 13.3297C60.2547 12.8857 60.7767 12.6637 61.3887 12.6637C62.0007 12.6637 62.5167 12.8857 62.9367 13.3297ZM74.5595 10.4137C74.0315 10.1257 73.4135 9.98172 72.7055 9.98172C71.8775 9.98172 71.1275 10.1917 70.4555 10.6117C69.7835 11.0317 69.2495 11.6317 68.8535 12.4117C68.4695 13.1917 68.2775 14.0977 68.2775 15.1297C68.2775 16.1617 68.4695 17.0737 68.8535 17.8657C69.2495 18.6457 69.7835 19.2517 70.4555 19.6837C71.1275 20.1037 71.8775 20.3137 72.7055 20.3137C73.4135 20.3137 74.0315 20.1697 74.5595 19.8817C75.0875 19.5817 75.5015 19.1977 75.8015 18.7297V20.1517C75.8015 20.9557 75.6095 21.5377 75.2255 21.8977C74.8535 22.2697 74.3495 22.4557 73.7135 22.4557C73.1855 22.4557 72.7415 22.3417 72.3815 22.1137C72.0215 21.8977 71.7935 21.5977 71.6975 21.2137H68.6555C68.7875 22.4137 69.3155 23.3617 70.2395 24.0577C71.1635 24.7657 72.3695 25.1197 73.8575 25.1197C74.9735 25.1197 75.9035 24.8977 76.6475 24.4537C77.4035 24.0097 77.9615 23.4097 78.3215 22.6537C78.6935 21.9097 78.8795 21.0757 78.8795 20.1517V10.1257H75.8015V11.5477C75.5135 11.0797 75.0995 10.7017 74.5595 10.4137ZM75.1535 13.3297C75.5855 13.7737 75.8015 14.3797 75.8015 15.1477C75.8015 15.9157 75.5855 16.5217 75.1535 16.9657C74.7335 17.4097 74.2175 17.6317 73.6055 17.6317C72.9935 17.6317 72.4715 17.4097 72.0395 16.9657C71.6195 16.5097 71.4095 15.8977 71.4095 15.1297C71.4095 14.3617 71.6195 13.7617 72.0395 13.3297C72.4715 12.8857 72.9935 12.6637 73.6055 12.6637C74.2175 12.6637 74.7335 12.8857 75.1535 13.3297ZM84.1303 15.0937V7.53372H81.0523V15.0757C81.0523 16.2037 81.2803 17.1637 81.7363 17.9557C82.1923 18.7357 82.8103 19.3237 83.5903 19.7197C84.3823 20.1037 85.2763 20.2957 86.2723 20.2957C87.2683 20.2957 88.1683 20.0977 88.9723 19.7017C89.7883 19.3057 90.4363 18.7177 90.9163 17.9377C91.3963 17.1577 91.6363 16.2037 91.6363 15.0757V7.53372H88.5583V15.0937C88.5583 15.8497 88.3663 16.4317 87.9823 16.8397C87.5983 17.2477 87.0463 17.4517 86.3263 17.4517C85.6063 17.4517 85.0603 17.2477 84.6883 16.8397C84.3163 16.4317 84.1303 15.8497 84.1303 15.0937Z" fill="black"/>
</svg>
